<svg xmlns="http://www.w3.org/2000/svg"><symbol id="mecha-stilts" viewBox="0 0 210 230"><path fill="#fff" d="M105.7 12.6l94.9 54.8V177l-94.9 54.8L10.8 177V67.4l94.9-54.8z"/><path fill="#ff9500" d="M50.6 162.7a1.8 1.8 0 0 1 0-3.6h9v-11.3h-9a1.7 1.7 0 0 1-1.8-1.8v-35.5a1.7 1.7 0 0 1 1.8-1.8h11.9c.9-25.6 19.9-39.6 43.2-39.6s42.3 14 43.2 39.6h11.8a1.7 1.7 0 0 1 1.8 1.8V146a1.7 1.7 0 0 1-1.8 1.8h-9v11.3h9a1.8 1.8 0 1 1 0 3.6zm1.8-50.4v31.9h106.5v-31.9zm10.8 35.5v11.3h11.5v-11.3zm2.9-39.1h79.2c-.9-23.2-18.6-36-39.6-36s-38.7 12.8-39.6 36zm12.2 39.1v11.3h18v-11.3zm21.6 0v11.3h11.5v-11.3zm48.8-12.3h-43.9a1.8 1.8 0 1 1 0-3.6h43.9a1.8 1.8 0 1 1 0 3.6zM115 147.8v11.3h18v-11.3zm21.6 0v11.3h11.5v-11.3z"/></symbol><symbol id="space-bubbles" viewBox="0 0 210 230"><path fill="#fff" d="M103 13l94.9 54.8v109.6L103 232.2 8 177.4V67.8L103 13z"/><path fill="#ff9500" d="M49.3 167l-4.1-5.9a1.8 1.8 0 0 1 .2-2.2l14.9-17.6h-7.4a1.7 1.7 0 0 1-1.8-1.8v-13a1.7 1.7 0 0 1 1.8-1.8h10.5a48.8 48.8 0 0 1-2-13.7 42.6 42.6 0 1 1 83.1 13.7H155a1.7 1.7 0 0 1 1.8 1.8v13a1.7 1.7 0 0 1-1.8 1.8h-9.2l14.8 17.6a2.2 2.2 0 0 1 0 2.2l-4.2 5.9a2 2 0 0 1-2.3.6l-8.7-4.5H60.3l-8.6 4.5a2.2 2.2 0 0 1-2.4-.6zm27.4-25.7H64.8L49 160l2.5 3.6 30.4-16zm-22-13v9.4h98.5v-9.4zm12.4-3.6h73.7a44.6 44.6 0 0 0 2.1-13.7 39 39 0 0 0-77.9 0c0 4.7.3 9.6 2.1 13.7zm17.3 25.8l-17.1 9h24.5zm-3-9.2l15.1 18.2h12.9l15.2-18.2zm40.1 9.2l-7.4 9h24.5zm19.6-9.2h-11.9l-5.4 6.3 30.6 16 2.6-3.4z"/></symbol><symbol id="super-domes" viewBox="0 0 210 230"><path fill="#fff" d="M106 13.4l94.9 54.8v109.6L106 232.6l-94.9-54.8V68.2L106 13.4z"/><path fill="#ff9500" d="M54 163.5a1.7 1.7 0 0 1-1.8-1.8v-21.8H28.4a1.8 1.8 0 1 1 0-3.6h13.5v-11.7a1.7 1.7 0 0 1 1.8-1.8h7.1a57 57 0 0 1 55-43.7c.2-.2.4-.2.8 0 26.6.2 48.7 18.9 54.7 43.7h7a1.7 1.7 0 0 1 1.8 1.8v11.7h13.5a1.8 1.8 0 1 1 0 3.6h-23.8v21.8a1.7 1.7 0 0 1-1.8 1.8zm-8.5-37.1v9.9h121v-9.9zm56.9-43.5c-23 1.4-42.3 18.1-47.9 39.9h19.3zm-46.6 57v20h48.4v-20zm48.4-53.4l-25.9 36.3h25.9zm3.6-3.8v40.1h49.7a53.5 53.5 0 0 0-49.7-40.1zm0 57.2v20h8.1v-20zm11.7 0v20h36.7v-20z"/></symbol></svg>
